<?xml version="1.0" standalone="no"?>
<!DOCTYPE svg PUBLIC "-//W3C//DTD SVG 20010904//EN"
 "http://www.w3.org/TR/2001/REC-SVG-20010904/DTD/svg10.dtd">
<svg version="1.0" xmlns="http://www.w3.org/2000/svg"
 width="644.000000pt" height="972.000000pt" viewBox="0 0 644.000000 972.000000"
 preserveAspectRatio="xMidYMid meet">

<g transform="translate(0.000000,972.000000) scale(0.100000,-0.100000)"
fill="#000000" stroke="none">
<path d="M5020 9652 c-58 -31 -88 -104 -111 -268 -10 -76 -21 -146 -24 -155
-3 -10 -133 -116 -288 -237 -155 -121 -464 -362 -687 -536 -223 -174 -456
-355 -518 -403 l-112 -86 -58 12 c-75 17 -193 64 -264 106 -31 18 -58 31 -61
29 -2 -3 -2 -34 0 -69 3 -42 1 -65 -6 -65 -5 0 -54 24 -108 54 -54 29 -224
122 -378 206 -154 84 -354 193 -445 243 -91 49 -217 118 -280 153 -63 34 -155
84 -205 111 l-90 50 -3 129 -3 129 -222 127 c-301 171 -282 162 -357 162 -75
-1 -127 -23 -176 -76 -52 -55 -66 -92 -66 -177 0 -98 3 -111 68 -371 65 -263
78 -324 98 -465 28 -206 38 -444 27 -688 -24 -516 -92 -922 -246 -1467 -45
-160 -232 -757 -242 -773 -3 -5 -10 -2 -15 7 -11 20 -42 21 -58 1 -15 -18 1
-20 18 -3 9 9 15 9 24 -1 11 -10 9 -15 -5 -25 -15 -12 -16 -14 -2 -20 23 -8
19 -46 -5 -46 -11 0 -20 5 -20 10 0 6 -4 10 -10 10 -20 0 -9 -21 16 -30 19 -8
24 -15 19 -28 -46 -121 -137 -455 -154 -569 -15 -97 -16 -4603 -1 -4603 6 0
10 14 10 30 0 36 6 37 61 5 55 -31 59 -31 59 0 l0 25 2680 0 2680 0 0 -25 c0
-31 14 -31 65 0 51 32 55 31 55 -5 0 -20 5 -30 15 -30 11 0 15 19 17 87 2 70
6 88 18 89 8 1 59 2 113 3 57 1 97 5 97 11 0 6 -23 10 -50 10 l-50 0 27 53
c15 28 29 55 31 60 2 4 -8 7 -22 7 l-26 0 0 4585 0 4585 25 0 c31 0 31 5 0 55
-35 57 -33 65 21 65 32 0 44 4 42 13 -4 9 -103 13 -444 15 -412 2 -441 1 -474
-16z m116 -32 c71 -35 142 -144 194 -300 57 -168 100 -551 82 -725 -7 -66 -9
-70 -32 -71 -53 -1 -60 -4 -60 -24 0 -11 -4 -20 -10 -20 -5 0 -10 18 -10 40 0
22 -3 40 -7 40 -5 0 -19 -16 -32 -36 -20 -29 -26 -33 -33 -20 -5 9 -18 16 -28
16 -11 0 -20 5 -20 10 0 6 11 10 25 10 14 0 25 5 25 11 0 6 -14 9 -32 7 -29
-3 -33 -7 -36 -34 -3 -29 -1 -31 22 -27 18 4 28 0 32 -12 10 -25 -12 -42 -36
-27 -26 16 -31 15 -24 -3 4 -8 18 -15 34 -15 15 0 33 7 40 15 17 20 46 19 54
-2 6 -14 8 -14 21 3 13 17 14 17 15 2 0 -34 20 -18 20 17 0 27 4 35 19 35 32
0 35 -88 7 -226 -64 -312 -118 -489 -216 -709 -72 -162 -139 -295 -139 -275
-1 8 10 75 24 149 14 74 25 138 25 144 0 5 13 7 30 4 34 -7 34 -8 20 28 -9 22
-6 29 17 49 33 29 37 84 8 116 -16 17 -17 24 -7 40 18 29 15 40 -13 40 l-25 0
0 670 c0 588 2 670 15 671 8 1 20 3 25 4 6 1 12 3 15 4 3 0 -1 14 -9 30 -13
25 -13 31 -1 41 23 19 28 65 10 100 -18 35 -55 53 -91 44 -28 -7 -64 -49 -64
-74 0 -11 -10 -20 -26 -24 -25 -7 -25 -8 -10 -31 15 -23 14 -25 -6 -39 -12 -9
-23 -14 -25 -12 -4 3 24 214 33 253 11 45 42 100 66 117 30 21 63 20 114 -4z
m684 13 c0 -5 -11 -28 -25 -52 -31 -54 -31 -61 0 -61 l25 0 0 -3400 c0 -2713
-3 -3400 -12 -3401 -7 -1 -29 -2 -48 -3 -32 -1 -35 -4 -38 -35 -2 -18 1 -38 7
-44 8 -8 11 -1 11 25 0 65 38 59 41 -7 2 -26 3 -25 8 9 3 22 12 41 19 44 9 3
12 -237 12 -1177 l0 -1181 -30 0 -30 0 30 -53 c16 -30 30 -57 30 -60 0 -4 -25
-7 -56 -7 l-55 0 1 1227 2 1228 -26 186 c-73 529 -182 866 -472 1468 -41 85
-74 156 -74 157 0 2 8 4 18 4 10 0 23 5 29 11 8 8 17 7 32 -3 16 -9 26 -10 39
-2 35 23 21 74 -20 74 -30 0 -16 24 18 31 28 6 28 7 -7 8 -34 1 -37 -2 -41
-30 -4 -27 -2 -30 17 -25 30 8 53 -18 35 -39 -7 -8 -16 -15 -20 -15 -18 0 -54
50 -55 77 0 24 -4 28 -30 28 -26 0 -30 -4 -30 -27 0 -70 -12 -49 -185 322
-116 249 -240 597 -240 674 0 14 25 160 55 324 30 163 93 511 140 772 l85 475
100 205 c139 290 213 481 259 680 46 196 60 259 72 332 7 45 17 74 23 72 13
-5 10 339 -4 494 -12 122 -52 327 -81 415 -32 93 -78 174 -132 234 l-49 53
326 0 c179 0 326 -3 326 -7z m-710 -243 c22 -22 27 -65 9 -76 -7 -4 -19 3 -29
16 -13 17 -24 22 -44 18 -31 -6 -36 15 -9 44 21 24 48 23 73 -2z m-4204 -96
c51 -26 427 -244 436 -252 8 -9 15 -222 7 -222 -6 0 -67 33 -319 171 -58 32
-104 62 -103 66 1 4 5 16 8 26 6 14 2 17 -21 17 -23 0 -32 7 -44 33 -30 64
-113 68 -145 6 -20 -38 -19 -51 7 -84 17 -22 19 -31 10 -46 -18 -29 -14 -39
15 -39 l26 0 -6 -217 c-4 -120 -7 -292 -7 -382 0 -90 -3 -162 -6 -158 -3 3
-17 69 -30 147 -13 78 -46 228 -73 333 -99 380 -101 485 -12 565 70 64 173 78
257 36z m4137 -79 c25 0 23 84 19 -820 l-2 -525 -25 0 c-27 0 -31 -10 -14 -41
8 -15 6 -25 -10 -46 -24 -29 -26 -60 -9 -97 9 -21 8 -29 -5 -44 -19 -21 -13
-32 16 -32 23 0 23 -1 -25 -265 -27 -152 -36 -180 -79 -266 -149 -298 -226
-517 -271 -769 -21 -123 -16 -500 9 -630 20 -100 20 -109 5 -197 -16 -91 -17
-93 -44 -93 -26 0 -28 -3 -22 -27 5 -18 2 -30 -8 -37 -48 -36 -50 -98 -3 -142
22 -21 35 -42 35 -58 0 -24 2 -25 25 -14 14 6 27 9 29 7 3 -2 36 -76 74 -164
38 -88 185 -425 327 -749 142 -325 254 -591 249 -593 -5 -2 -16 -8 -24 -14
-13 -8 -12 -12 6 -25 18 -12 21 -22 16 -60 -3 -34 0 -49 13 -64 15 -17 16 -24
7 -46 -16 -34 -16 -34 15 -34 l26 0 -6 -282 c-3 -156 -12 -587 -18 -958 -7
-395 -16 -678 -22 -681 -5 -4 -18 -4 -28 -2 -22 6 -23 3 -7 -31 9 -21 8 -29
-5 -43 -8 -10 -19 -30 -22 -45 -6 -23 -13 -28 -36 -28 -32 0 -35 -6 -14 -34
17 -22 55 8 -343 -269 -156 -109 -288 -198 -294 -200 -5 -1 -15 5 -21 14 -8
13 2 39 53 125 35 60 95 163 133 229 38 66 77 127 88 137 10 9 19 24 19 35 1
22 24 55 33 46 4 -3 7 -22 7 -42 0 -41 17 -31 22 13 5 47 28 45 28 -3 0 -23 5
-41 11 -41 6 0 9 17 7 43 -3 38 -5 42 -30 42 -15 1 -30 4 -34 7 -3 4 26 63 66
131 l73 124 66 -4 c57 -4 71 -2 101 19 43 29 76 77 84 123 16 84 -43 174 -129
197 -26 7 -49 17 -51 23 -2 5 -19 147 -39 315 -20 168 -49 415 -66 549 -16
134 -28 244 -27 245 2 1 20 10 41 20 104 53 125 197 42 281 -60 60 -147 69
-215 22 -50 -34 -71 -68 -76 -128 -4 -44 -1 -63 18 -99 24 -48 77 -90 112 -90
12 0 27 -4 34 -8 12 -8 72 -431 72 -509 0 -35 -3 -37 -62 -34 l-38 3 0 -46 c0
-55 17 -62 22 -9 4 52 28 56 28 4 0 -23 5 -41 10 -41 6 0 10 16 10 35 0 28 4
35 20 35 15 0 20 -7 20 -29 0 -16 4 -51 10 -78 5 -26 19 -131 30 -233 12 -102
24 -193 26 -202 4 -13 -3 -21 -23 -29 -34 -13 -80 -55 -99 -91 -8 -15 -14 -49
-14 -76 0 -40 7 -60 34 -100 l34 -51 -42 -73 c-111 -193 -146 -243 -146 -209
0 5 -26 9 -57 8 -53 -2 -58 -4 -59 -24 -1 -13 -2 -29 -3 -36 0 -7 -13 -13 -30
-12 l-29 0 29 33 c32 36 31 34 23 56 -4 9 -18 16 -34 16 -29 0 -48 -15 -35
-28 3 -3 10 0 15 7 9 16 40 8 40 -10 0 -6 -13 -24 -30 -39 -42 -39 -38 -50 19
-50 l50 0 3 38 c4 52 31 50 39 -3 5 -34 6 -36 8 -10 2 37 15 60 30 51 21 -13
11 -51 -32 -126 -60 -104 -146 -251 -198 -339 l-44 -74 -76 -1 c-66 -1 -80 -5
-111 -28 -49 -37 -71 -87 -66 -151 2 -29 6 -58 9 -65 2 -8 -25 -34 -68 -64
l-73 -50 -24 19 -24 19 20 60 c85 256 155 441 192 509 100 182 178 395 216
585 11 58 25 127 30 154 6 27 27 95 47 153 29 81 40 102 53 98 30 -12 35 -10
35 16 0 17 10 35 27 48 64 51 29 161 -51 161 -14 0 -23 9 -27 25 -7 30 -11 30
-36 8 -34 -30 -57 12 -100 181 -58 227 -121 361 -227 477 -122 136 -313 233
-527 269 -52 8 -78 18 -93 34 -20 21 -21 25 -7 39 22 22 20 35 -6 39 -14 2
-24 11 -26 23 -13 85 -77 120 -135 74 -21 -16 -31 -18 -46 -10 -31 17 -41 13
-41 -14 l0 -25 -650 0 -650 0 0 26 c0 21 -3 25 -18 19 -35 -15 -52 -17 -52 -7
0 5 -14 15 -31 22 -25 11 -38 11 -66 1 -29 -11 -37 -10 -52 3 -23 21 -31 20
-31 -4 0 -25 -26 -26 -96 -6 -27 8 -197 53 -379 99 -181 47 -448 115 -592 152
l-263 68 0 28 c0 26 -3 28 -28 23 -22 -5 -30 -1 -41 19 -11 21 -11 28 4 51 17
26 17 26 -9 26 -21 0 -26 5 -26 23 0 25 304 2175 325 2305 5 28 10 32 35 32
28 0 29 2 18 24 -9 21 -7 29 16 56 31 38 33 68 5 103 -16 21 -18 31 -10 46 17
31 13 41 -15 41 l-26 0 6 183 c3 100 8 324 11 497 3 173 7 405 10 515 3 110 7
331 10 490 3 160 8 383 11 498 l6 207 25 0 c18 0 23 4 19 15 -16 40 -16 48 0
23 22 -33 30 -35 39 -8 3 11 10 20 16 20 7 0 425 -225 437 -235 1 -1 3 -208 2
-459 0 -275 4 -472 10 -495 13 -48 63 -95 122 -115 26 -9 131 -26 233 -38
l185 -23 0 -70 c0 -82 22 -138 68 -177 92 -77 229 -55 293 48 17 29 24 56 27
119 l4 81 140 12 c407 35 488 69 488 202 0 27 3 50 8 50 4 -1 21 -9 39 -18 25
-13 30 -21 23 -32 -19 -30 -11 -40 31 -40 32 0 46 -6 61 -25 26 -34 63 -33 85
3 23 36 32 42 69 42 40 0 48 9 28 32 -13 14 -14 21 -5 32 10 12 42 13 184 9
134 -4 193 -2 267 11 224 39 450 145 630 295 287 238 452 499 542 854 29 114
33 124 67 149 l36 27 18 -22 c10 -12 28 -22 40 -22z m-176 -82 c-13 -79 -81
-272 -134 -379 -117 -238 -339 -478 -577 -624 -215 -131 -490 -201 -722 -184
-50 3 -96 9 -102 13 -6 3 112 102 261 218 150 116 421 327 602 468 182 142
346 270 365 285 117 93 306 240 309 240 2 0 1 -17 -2 -37z m-4033 11 c24 -23
20 -44 -9 -44 -14 0 -30 -9 -37 -20 -15 -24 -34 -26 -42 -4 -10 27 -7 43 14
64 24 24 53 26 74 4z m767 -495 c112 -61 229 -125 259 -141 166 -92 293 -161
545 -298 382 -208 383 -208 444 -243 l54 -30 -7 -59 c-7 -75 -18 -93 -64 -117
-50 -25 -209 -50 -460 -71 -121 -10 -123 -10 -172 15 -60 30 -58 30 -62 3 -2
-19 -10 -24 -45 -26 -42 -3 -43 -3 -43 28 l0 32 -47 -27 c-56 -34 -101 -34
-333 -4 -184 23 -247 47 -273 102 -15 31 -17 85 -17 491 0 251 4 456 8 456 5
0 100 -50 213 -111z m3689 -136 c0 -5 -4 -15 -10 -23 -11 -18 -25 -7 -17 15 6
15 27 21 27 8z m107 -35 c-3 -8 -6 -5 -6 6 -1 11 2 17 5 13 3 -3 4 -12 1 -19z
m-2385 -450 c42 -20 95 -42 118 -49 49 -15 57 -28 37 -65 -10 -19 -23 -27 -45
-29 -26 -2 -35 3 -51 31 -18 31 -41 45 -41 27 0 -5 -4 -14 -9 -22 -7 -11 -18
-8 -55 14 -46 27 -46 27 -46 82 0 30 3 53 8 51 4 -2 41 -20 84 -40z m228 -88
c0 -5 -4 -10 -9 -10 -6 0 -13 5 -16 10 -3 6 1 10 9 10 9 0 16 -4 16 -10z m-97
-99 c6 -24 0 -31 -25 -31 -19 0 -24 15 -8 25 6 4 8 11 5 16 -4 5 0 9 8 9 8 0
17 -9 20 -19z m1918 -83 l11 -21 18 23 18 23 11 -21 c16 -30 14 -46 -8 -66
-18 -17 -20 -16 -26 3 -8 25 -18 27 -35 6 -16 -19 -30 -10 -30 20 0 53 21 71
41 33z m-3061 -133 l50 -25 0 25 c0 23 4 25 45 25 41 0 45 -2 45 -25 l0 -25
50 25 c27 14 54 25 61 25 8 0 10 -25 8 -79 -3 -61 -9 -86 -25 -107 -36 -49
-70 -67 -131 -72 -49 -3 -64 0 -93 20 -61 41 -80 81 -80 164 0 44 4 74 10 74
6 0 33 -11 60 -25z m2811 -1262 c-69 -381 -128 -689 -132 -685 -14 15 -29 194
-29 340 0 271 41 479 146 744 54 137 132 304 138 297 2 -2 -53 -316 -123 -696z
m-4076 320 c-7 -100 -8 -103 -31 -103 -28 0 -28 -1 -13 -34 10 -21 8 -29 -10
-52 -25 -32 -27 -57 -4 -95 16 -26 16 -29 0 -47 -23 -25 -21 -32 9 -32 24 0
26 -3 21 -32 -3 -18 -79 -549 -168 -1180 l-163 -1148 -28 0 c-25 0 -27 -2 -18
-25 8 -20 5 -29 -15 -49 -35 -35 -34 -89 1 -121 29 -27 59 -31 98 -13 22 9 29
8 46 -7 20 -18 21 -18 27 3 3 12 13 22 22 22 10 0 172 -40 362 -89 784 -202
938 -241 944 -241 4 0 5 -14 1 -31 -6 -29 -5 -30 23 -24 23 5 34 0 59 -24 17
-17 40 -31 51 -31 26 0 71 21 71 33 0 9 17 7 53 -8 14 -6 17 -2 17 19 l0 26
650 0 650 0 0 -25 c0 -27 10 -31 41 -14 15 8 25 6 46 -10 14 -12 36 -21 48
-21 13 0 25 -7 27 -17 5 -17 -19 -18 -401 -18 -223 0 -824 -2 -1336 -5 l-930
-5 -70 24 c-330 111 -592 409 -686 779 -53 208 -55 467 -4 677 32 136 132 457
144 464 5 3 11 20 13 36 2 19 10 31 21 33 14 3 17 -4 17 -32 0 -20 5 -36 10
-36 6 0 10 16 10 35 0 24 5 35 15 35 10 0 15 -11 15 -35 0 -19 5 -35 11 -35 6
0 9 17 7 43 -3 39 -5 42 -33 43 -68 2 -66 -3 -41 77 13 39 59 187 104 327 164
519 261 916 304 1235 l13 100 3 -135 c2 -74 0 -181 -3 -237z m-3 -212 c11 -18
12 -18 30 3 15 18 19 19 28 6 13 -20 13 -53 -2 -68 -17 -17 -26 -15 -34 10
l-7 22 -17 -21 c-27 -34 -52 4 -34 51 8 21 21 20 36 -3z m3998 -1106 c66 -208
144 -388 335 -780 318 -651 425 -916 510 -1268 41 -169 82 -405 91 -522 l7
-83 -42 5 -41 6 0 -47 c0 -55 17 -62 22 -9 4 52 28 56 28 4 0 -23 5 -41 10
-41 6 0 10 16 10 35 0 19 4 35 9 35 5 0 12 -62 16 -137 36 -653 -135 -1266
-471 -1696 -45 -58 -53 -64 -59 -47 -5 17 -15 20 -66 20 l-59 0 0 -39 c0 -52
18 -63 22 -14 4 53 32 52 37 -2 l5 -40 5 40 c7 46 34 56 39 15 2 -21 -15 -43
-95 -121 -109 -106 -178 -160 -303 -241 -120 -78 -189 -111 -320 -152 -136
-42 -216 -56 -325 -56 -104 0 -149 13 -198 59 -34 32 -40 45 -44 87 -7 66 10
99 128 244 51 63 115 148 143 188 28 40 52 69 53 65 1 -4 -24 -82 -56 -173
-58 -164 -59 -165 -88 -163 -28 2 -29 1 -25 -32 3 -27 0 -35 -11 -35 -24 0
-47 -40 -47 -81 0 -71 85 -105 135 -54 14 13 25 33 25 44 0 13 9 21 30 26 32
7 37 14 18 33 -16 16 -1 31 76 81 62 41 86 50 86 32 0 -16 84 -51 121 -51 57
0 120 39 148 90 26 47 32 120 13 157 -10 18 11 35 231 188 133 92 280 195 326
228 l84 60 19 -23 c16 -20 21 -21 29 -9 5 7 9 19 9 25 0 7 17 11 41 10 74 -2
112 73 70 138 -18 27 -18 31 -4 53 8 12 11 23 7 24 -5 1 -18 2 -29 3 -19 1
-20 7 -17 176 5 299 21 1161 28 1463 l6 287 29 0 c29 0 29 0 15 29 -14 26 -14
30 4 46 38 34 22 117 -26 135 -18 7 -24 17 -24 40 0 32 -9 37 -28 18 -8 -8
-15 -9 -22 -2 -16 16 -661 1499 -653 1502 34 12 38 21 17 43 -18 18 -20 25
-11 48 8 21 6 35 -6 61 -16 31 -16 35 0 52 15 17 15 20 3 28 -8 6 -21 10 -28
10 -8 0 -11 7 -8 18 2 9 8 37 12 62 8 51 5 56 54 -95z m-115 -86 c7 -20 8 -20
26 -3 24 21 42 8 37 -27 -4 -24 -9 -26 -40 -14 -14 6 -18 2 -18 -19 0 -30 -7
-32 -32 -9 -18 16 -23 48 -12 77 9 23 31 20 39 -5z m560 -689 c0 -22 -29 -18
-33 3 -3 14 1 18 15 15 10 -2 18 -10 18 -18z m3 -53 c4 -20 -25 -34 -40 -19
-15 15 -1 44 19 40 10 -2 19 -11 21 -21z m-5055 -529 c20 -58 50 -135 68 -170
136 -272 396 -498 649 -564 81 -21 66 -21 1480 -10 619 4 1172 5 1230 1 l105
-7 75 -77 c85 -87 177 -183 440 -461 102 -107 216 -228 255 -268 38 -40 73
-79 77 -85 15 -28 30 -226 26 -363 l-3 -149 -144 -410 c-78 -225 -154 -430
-169 -455 -46 -80 -133 -202 -227 -320 -51 -63 -104 -132 -119 -154 -77 -115
-47 -234 74 -289 44 -20 57 -21 892 -18 l848 3 0 -46 c0 -25 -2 -46 -5 -46 -3
0 -28 11 -55 25 -61 31 -60 31 -60 0 l0 -25 -2680 0 -2680 0 0 25 c0 31 -5 31
-55 0 -22 -14 -46 -25 -52 -25 -10 0 -13 407 -13 2002 0 1101 2 1999 4 1997 2
-2 20 -52 39 -111z m237 -150 c0 -6 11 -26 25 -43 13 -18 21 -35 18 -39 -12
-12 -61 -6 -73 9 -16 19 -16 61 0 80 13 16 30 12 30 -7z m60 -14 c0 -8 -9 -14
-20 -14 -18 0 -19 3 -10 20 12 22 30 18 30 -6z m5015 -307 c12 -19 13 -30 4
-55 -13 -37 -25 -41 -34 -12 -8 26 -21 25 -36 -2 -11 -21 -12 -21 -25 -3 -25
34 -9 84 19 56 18 -18 27 -13 27 14 0 32 24 33 45 2z m-3445 -77 c12 -7 12
-12 -4 -29 -17 -19 -17 -21 -2 -27 25 -10 19 -33 -11 -40 -30 -8 -56 5 -61 30
-2 11 3 16 17 16 25 0 27 13 6 30 -8 7 -12 16 -9 21 7 12 45 11 64 -1z m1578
-2 c7 -7 12 -22 12 -35 0 -20 -4 -22 -25 -17 -24 6 -25 4 -19 -20 5 -21 3 -26
-13 -26 -10 0 -25 6 -31 12 -10 10 -8 16 9 29 l22 17 -22 11 c-18 10 -20 15
-10 27 14 17 61 18 77 2z m1450 -35 c64 -47 79 -147 33 -212 -27 -37 -35 -33
-78 35 -15 24 -32 43 -37 41 -5 -2 -20 -31 -34 -65 -24 -59 -27 -61 -46 -49
-90 59 -87 199 6 258 41 25 116 21 156 -8z m-1403 -123 c3 -5 -1 -10 -10 -10
-9 0 -13 5 -10 10 3 6 8 10 10 10 2 0 7 -4 10 -10z m235 -82 c229 -57 420
-208 521 -413 46 -94 123 -333 117 -363 -2 -8 -87 74 -192 184 -105 110 -276
288 -380 398 -105 109 -195 205 -199 212 -9 16 10 13 133 -18z m1085 -58 c3
-5 -3 -10 -15 -10 -12 0 -18 5 -15 10 3 6 10 10 15 10 5 0 12 -4 15 -10z m58
3 c-7 -2 -19 -2 -25 0 -7 3 -2 5 12 5 14 0 19 -2 13 -5z m-433 -853 c0 -5 -4
-10 -10 -10 -5 0 -10 5 -10 10 0 6 5 10 10 10 6 0 10 -4 10 -10z m150 -62 c13
-25 13 -31 0 -55 -21 -37 -40 -41 -40 -9 0 26 -13 35 -25 16 -12 -20 -35 -10
-35 15 0 22 2 24 26 15 25 -10 25 -9 19 21 -6 28 -5 30 16 27 13 -2 30 -15 39
-30z m-130 -24 c0 -14 4 -33 10 -43 7 -14 5 -23 -9 -35 -17 -16 -19 -15 -25
21 -10 61 -7 83 9 83 9 0 15 -10 15 -26z m16 -129 c3 -7 -3 -38 -15 -67 l-20
-53 0 68 c-1 54 2 67 14 67 9 0 18 -7 21 -15z m484 -135 c0 -5 -10 -10 -22
-10 -19 0 -20 2 -8 10 19 13 30 13 30 0z m63 3 c-7 -2 -19 -2 -25 0 -7 3 -2 5
12 5 14 0 19 -2 13 -5z m92 -57 c28 -38 28 -124 -1 -162 -26 -35 -61 -60 -96
-68 l-28 -6 0 74 0 75 -61 -35 c-71 -42 -79 -38 -79 40 0 35 7 59 23 83 12 18
25 33 28 33 4 0 26 -26 50 -57 28 -37 44 -52 47 -42 3 7 16 38 28 68 23 52 25
53 46 39 12 -8 31 -27 43 -42z m442 -1673 c-2 -2 -300 -2 -663 -1 l-659 3 75
23 c329 103 689 396 913 744 147 228 279 568 324 833 5 29 9 -289 11 -774 1
-453 1 -826 -1 -828z m-652 1487 c3 -5 2 -10 -4 -10 -5 0 -13 5 -16 10 -3 6
-2 10 4 10 5 0 13 -4 16 -10z m55 -30 c13 -8 13 -10 -2 -10 -9 0 -20 5 -23 10
-8 13 5 13 25 0z m-617 -132 c-32 -119 -122 -351 -123 -317 0 4 93 277 135
397 2 6 6 12 9 12 3 0 -7 -42 -21 -92z m873 -220 l6 -21 19 24 c16 20 20 22
29 9 18 -28 11 -69 -15 -86 -33 -21 -60 -12 -45 15 14 28 13 31 -15 31 -27 0
-33 18 -13 38 17 17 26 15 34 -10z m-892 -544 c-1 -16 -2 -45 -3 -65 -1 -31
-8 -40 -62 -77 -33 -23 -64 -40 -69 -37 -19 12 -21 76 -2 118 22 48 44 70 87
85 41 14 50 10 49 -24z m56 16 c0 -5 -4 -10 -9 -10 -6 0 -13 5 -16 10 -3 6 1
10 9 10 9 0 16 -4 16 -10z m50 -30 c0 -5 -4 -10 -9 -10 -6 0 -13 5 -16 10 -3
6 1 10 9 10 9 0 16 -4 16 -10z m36 -82 c8 -49 -25 -122 -68 -148 -19 -11 -51
-20 -73 -20 -43 0 -110 30 -110 49 0 17 227 173 237 163 5 -5 11 -25 14 -44z
m-562 -273 c5 -18 13 -25 31 -25 32 0 38 -12 19 -39 -22 -31 -73 -26 -93 10
-13 24 -13 29 2 53 22 33 33 33 41 1z"/>
<path d="M5473 8523 c-8 -3 -12 -21 -11 -46 l1 -42 4 38 c3 29 9 37 24 37 15
0 19 -8 20 -37 2 -35 2 -35 6 -8 9 62 43 69 43 9 0 -19 5 -34 10 -34 14 0 12
67 -2 77 -15 8 -77 12 -95 6z"/>
<path d="M4912 6418 c-15 -15 -16 -32 -2 -23 6 4 10 -10 10 -34 0 -22 5 -43
10 -46 6 -4 10 17 10 54 0 61 -6 71 -28 49z"/>
<path d="M4977 6423 c-4 -3 -7 -28 -7 -54 0 -43 3 -49 24 -55 30 -7 46 1 46
24 0 13 4 11 16 -6 18 -27 51 -26 68 1 16 25 -5 52 -38 50 -23 -2 -25 1 -16
18 12 22 36 25 43 7 3 -8 6 -6 6 5 1 24 -44 22 -62 -3 l-14 -21 -6 21 c-5 20
-45 29 -60 13z m49 -28 c13 -52 -23 -104 -40 -59 -8 21 -8 69 1 77 14 15 33 6
39 -18z m79 -45 c0 -13 -6 -25 -12 -27 -16 -6 -27 21 -19 43 9 23 31 11 31
-16z"/>
<path d="M5141 6351 l2 -46 6 40 c4 26 11 40 21 40 10 0 17 -14 21 -40 3 -22
7 -33 9 -25 1 8 2 21 1 28 -2 15 17 42 30 42 5 0 9 -18 9 -40 0 -22 5 -40 11
-40 6 0 9 17 7 43 l-3 42 -57 1 -58 1 1 -46z"/>
<path d="M5271 6351 l1 -46 8 38 c4 20 10 40 13 43 13 13 27 -9 27 -42 0 -19
5 -34 10 -34 6 0 10 15 10 34 0 19 5 38 11 41 14 10 18 4 21 -34 1 -18 6 -35
11 -38 4 -3 7 15 5 39 l-3 43 -57 1 -58 1 1 -46z"/>
<path d="M5291 4543 l1 -48 8 38 c4 20 10 40 13 43 13 13 27 -9 27 -42 0 -46
18 -44 22 3 4 49 28 57 28 9 0 -19 5 -38 11 -41 7 -5 9 8 7 37 l-3 43 -57 3
-58 2 1 -47z"/>
<path d="M5421 4541 l1 -46 10 43 c12 56 38 58 38 2 0 -22 5 -40 10 -40 6 0
10 15 10 34 0 33 14 55 27 42 3 -3 10 -23 14 -43 l7 -38 -1 45 -2 45 -57 1
-58 1 1 -46z"/>
<path d="M825 5189 c-4 -5 -7 -46 -8 -90 -1 -67 -4 -80 -19 -85 -28 -9 -77
-53 -93 -85 -30 -57 -12 -159 34 -197 9 -7 30 -20 48 -28 l32 -14 3 -123 3
-122 460 -5 460 -5 2 -85 3 -85 -45 -27 c-79 -47 -106 -148 -65 -232 19 -39
73 -86 98 -86 8 0 12 -27 12 -89 0 -63 4 -92 14 -100 10 -9 213 -12 756 -14
651 -2 744 0 751 13 4 8 11 53 14 100 l7 85 44 27 c47 29 83 89 84 139 0 63
-44 134 -102 165 -27 14 -28 17 -28 103 0 70 -3 91 -17 102 -13 11 -103 15
-452 19 l-436 5 -2 105 -3 105 48 22 c66 31 96 84 90 157 -5 65 -32 105 -93
137 l-45 24 0 72 c0 39 -3 78 -6 87 -6 14 -83 16 -774 16 -533 0 -771 -3 -775
-11z m485 -21 c0 -7 -11 -33 -25 -57 -14 -23 -25 -45 -25 -47 0 -2 11 -4 25
-4 l25 0 0 -240 0 -240 -25 0 c-14 0 -25 -2 -25 -5 0 -2 11 -24 25 -49 14 -25
25 -50 25 -55 0 -12 -425 -16 -454 -5 -13 5 -16 26 -16 129 l0 123 -27 5 c-66
14 -112 97 -93 168 11 42 70 99 100 99 18 0 20 7 20 90 l0 90 228 3 c125 1
230 3 235 5 4 1 7 -4 7 -10z m1040 -83 c0 -73 3 -86 18 -91 81 -24 123 -70
124 -135 1 -67 -23 -103 -88 -134 l-55 -26 7 -117 c3 -64 11 -123 16 -129 8
-10 110 -13 449 -13 l439 0 0 -95 0 -95 49 -30 c46 -29 92 -93 76 -108 -3 -4
-25 4 -48 16 -52 28 -57 27 -57 -1 l0 -24 -750 -7 c-412 -4 -754 -5 -760 -1
-5 3 -10 15 -10 26 0 24 -1 24 -60 -6 l-50 -25 0 23 c0 36 41 89 88 115 l42
23 0 93 c0 58 -4 96 -12 104 -9 9 -72 12 -220 12 -160 0 -208 3 -208 13 0 6
12 30 25 52 31 50 31 55 0 55 l-25 0 0 240 0 240 25 0 c31 0 31 5 0 55 -14 22
-25 43 -25 48 0 4 227 7 505 7 l505 0 0 -85z m-588 -1048 l3 28 758 3 757 2 0
-25 c0 -31 4 -31 59 0 24 14 46 23 49 21 2 -3 -1 -19 -8 -36 -15 -36 -61 -77
-96 -86 -23 -6 -24 -9 -24 -99 0 -52 -4 -96 -9 -100 -13 -8 -1368 -6 -1426 1
l-45 7 0 88 0 88 -35 17 c-43 20 -95 78 -95 104 0 19 4 18 54 -10 l55 -31 3
28z"/>
<path d="M1395 4849 c-4 -6 -4 -13 0 -17 4 -4 10 -1 12 6 3 6 13 12 24 12 29
0 23 -32 -11 -65 -16 -16 -30 -32 -30 -37 0 -4 19 -7 43 -7 29 2 34 3 15 6
-34 5 -35 10 -2 44 34 35 26 69 -16 69 -16 0 -32 -5 -35 -11z"/>
<path d="M1484 4846 c-3 -8 -3 -20 0 -25 4 -6 1 -19 -6 -30 -16 -26 6 -53 41
-49 24 3 26 6 26 58 0 53 -1 55 -28 58 -17 2 -29 -2 -33 -12z m46 -10 c0 -21
-21 -31 -30 -15 -5 7 -6 17 -4 21 9 14 34 9 34 -6z m8 -59 c4 -20 -25 -34 -40
-19 -15 15 -1 44 19 40 10 -2 19 -11 21 -21z"/>
<path d="M1607 4853 c-4 -3 -7 -17 -7 -30 0 -19 4 -23 19 -18 22 7 44 -16 35
-39 -7 -18 -29 -21 -39 -6 -3 6 -11 10 -17 10 -7 0 -6 -6 2 -15 16 -20 44 -19
61 1 12 14 14 14 20 -3 6 -14 8 -11 8 12 2 64 41 73 41 9 0 -46 18 -44 22 4 4
52 31 50 39 -3 l7 -40 -2 45 -1 45 -57 3 c-57 2 -58 2 -59 -25 0 -27 -1 -27
-9 -5 -6 14 -18 22 -34 22 -34 0 -24 27 12 33 25 4 25 4 -4 6 -17 0 -34 -2
-37 -6z"/>
<path d="M1816 4823 c-10 -11 -7 -85 4 -78 6 3 10 19 10 35 0 28 15 48 27 36
3 -3 5 -18 5 -33 0 -46 13 -51 18 -8 3 27 10 40 20 40 10 0 17 -14 21 -40 l7
-40 -2 45 -1 45 -51 2 c-28 1 -54 0 -58 -4z"/>
<path d="M2261 4231 c-26 -48 -3 -105 40 -99 16 2 25 10 27 26 4 30 -16 55
-40 49 -11 -3 -18 0 -18 9 0 21 28 28 47 13 14 -12 16 -12 11 1 -7 24 -55 25
-67 1z m55 -76 c-3 -9 -14 -15 -23 -13 -22 4 -30 38 -11 49 18 11 43 -15 34
-36z"/>
<path d="M2363 4243 c31 -5 32 -8 12 -43 -8 -14 -14 -36 -14 -50 0 -17 7 -6
24 35 14 33 25 61 25 63 0 1 -17 1 -37 1 -31 -2 -33 -3 -10 -6z"/>
<path d="M2426 4213 c-10 -10 -7 -71 3 -78 6 -3 11 12 13 32 4 53 31 51 39 -2
l6 -40 2 36 c0 21 7 39 15 42 20 8 26 -2 26 -40 0 -19 4 -32 8 -29 4 2 6 22 4
44 l-4 39 -53 1 c-29 0 -56 -2 -59 -5z"/>
<path d="M2561 4170 l2 -45 6 40 c4 26 11 40 21 40 10 0 17 -14 21 -40 6 -36
6 -37 8 -9 1 31 22 60 34 47 4 -3 7 -21 7 -40 0 -18 5 -33 10 -33 12 0 13 59
2 76 -4 7 -30 11 -59 11 l-53 -1 1 -46z"/>
<path d="M2415 3561 c11 -5 23 -7 28 -4 12 7 8 -12 -9 -45 -8 -18 -14 -40 -11
-50 3 -15 5 -15 11 3 6 17 21 48 44 98 2 4 -16 7 -40 6 -32 0 -38 -2 -23 -8z"/>
<path d="M2490 3551 c-23 -44 -4 -101 34 -101 26 0 36 17 36 60 0 16 -3 35 -6
44 -9 22 -51 20 -64 -3z m48 -3 c14 -14 16 -57 3 -77 -17 -26 -41 -4 -41 37 0
51 13 65 38 40z"/>
<path d="M2570 3493 c0 -23 5 -43 10 -43 6 0 10 16 10 35 0 24 5 35 15 35 10
0 15 -11 15 -35 0 -19 5 -35 10 -35 6 0 10 16 10 36 0 28 3 35 18 32 10 -2 19
-16 24 -38 6 -32 6 -31 5 10 l-2 45 -57 1 -58 1 0 -44z"/>
<path d="M2700 3495 c0 -25 5 -45 10 -45 6 0 10 16 10 35 0 24 5 35 15 35 14
0 20 -17 16 -47 -1 -6 3 -14 9 -18 6 -4 10 8 10 29 0 20 5 36 10 36 6 0 13 0
18 0 4 1 10 -16 13 -37 7 -38 7 -37 5 7 l-1 45 -57 3 -58 2 0 -45z"/>
<path d="M4610 2596 c0 -8 -3 -22 -6 -31 -5 -12 -2 -16 12 -15 35 4 44 0 44
-20 0 -25 -29 -38 -40 -19 -5 7 -12 10 -16 6 -12 -12 12 -29 36 -25 51 7 51
69 1 76 -28 4 -22 24 10 33 21 6 21 7 -8 8 -22 1 -33 -4 -33 -13z"/>
<path d="M4690 2596 c-8 -10 -8 -16 -2 -16 6 0 14 5 17 10 3 6 13 10 21 10 24
0 16 -35 -16 -65 -16 -16 -30 -32 -30 -37 0 -4 19 -7 43 -7 29 2 34 3 15 6
-34 5 -35 10 -2 40 33 30 30 67 -7 71 -14 2 -31 -4 -39 -12z"/>
<path d="M4771 2531 l1 -46 11 38 c16 50 31 52 35 5 4 -48 22 -50 22 -2 0 28
3 35 18 32 10 -2 19 -16 24 -38 6 -32 6 -31 5 10 l-2 45 -57 1 -58 1 1 -46z"/>
<path d="M4546 1414 c-12 -32 -6 -43 21 -41 30 2 40 -17 23 -43 -8 -12 -13
-13 -30 -2 -27 16 -35 15 -20 -3 19 -23 59 -19 69 8 11 28 -4 57 -29 57 -30 0
-24 28 8 33 26 4 26 4 -4 6 -21 0 -34 -5 -38 -15z"/>
<path d="M1835 7914 c-27 -23 -28 -26 -7 -21 21 5 22 2 22 -54 0 -33 4 -59 10
-59 6 0 10 33 10 80 0 44 -1 80 -2 80 -2 -1 -16 -12 -33 -26z"/>
<path d="M1920 7912 c-25 -25 -25 -25 -2 -19 21 5 22 2 22 -54 0 -33 4 -59 10
-59 6 0 10 33 10 80 0 44 -3 80 -7 79 -5 -1 -19 -13 -33 -27z"/>
<path d="M2023 7893 c-21 -4 -23 -10 -23 -59 0 -66 18 -72 22 -6 3 40 6 47 26
50 20 3 22 0 22 -47 0 -28 5 -51 10 -51 6 0 10 23 10 51 0 47 2 50 23 47 18
-3 23 -11 28 -53 4 -37 7 -45 13 -32 10 21 1 86 -13 100 -7 7 -19 7 -35 -1
-16 -7 -28 -8 -31 -2 -6 10 -13 11 -52 3z"/>
<path d="M2193 7893 c-21 -4 -23 -10 -23 -59 0 -66 18 -72 22 -6 3 39 6 47 23
47 17 0 20 -8 23 -48 4 -59 22 -52 22 9 0 36 3 44 19 44 22 0 31 -19 31 -66 0
-20 3 -33 8 -31 4 3 5 28 3 57 -3 56 -20 72 -52 52 -11 -7 -20 -8 -24 -2 -6
10 -13 11 -52 3z"/>
<path d="M418 5312 c-14 -3 -18 -13 -18 -43 0 -22 5 -39 11 -39 6 0 8 7 5 16
-9 23 2 54 20 54 9 0 14 -11 14 -35 0 -19 5 -35 10 -35 6 0 10 16 10 36 0 28
3 35 18 32 12 -2 17 -13 17 -36 0 -17 3 -32 8 -32 4 0 7 19 5 43 -3 42 -3 42
-43 42 -22 1 -48 -1 -57 -3z"/>
<path d="M630 3541 c-25 -48 -2 -105 41 -99 16 2 25 10 27 26 5 30 -16 55 -41
48 -13 -3 -17 0 -13 11 3 8 6 17 6 19 0 10 29 3 33 -8 2 -7 8 -10 12 -6 12 12
-5 28 -30 28 -14 0 -29 -8 -35 -19z m54 -50 c9 -14 -4 -41 -19 -41 -18 0 -28
17 -21 35 6 17 32 20 40 6z"/>
<path d="M715 3549 c4 -6 13 -8 20 -5 21 8 25 -5 11 -33 -22 -42 -28 -71 -17
-71 6 0 11 6 11 14 0 7 11 34 25 60 l24 46 -40 0 c-26 0 -38 -4 -34 -11z"/>
<path d="M803 3523 c-15 -6 -18 -83 -3 -83 6 0 10 16 10 36 0 49 32 44 41 -6
l6 -35 4 35 c3 23 10 36 22 38 13 3 17 -4 17 -30 0 -27 4 -34 20 -35 16 -1 20
4 20 33 0 27 4 34 20 34 16 0 20 -7 21 -37 1 -39 3 -38 13 10 9 41 36 35 36
-8 0 -19 5 -35 10 -35 12 0 13 59 2 77 -4 7 -29 11 -62 9 -55 -2 -55 -2 -55
-34 0 -42 -13 -42 -17 1 -3 31 -5 32 -48 33 -25 1 -51 0 -57 -3z"/>
<path d="M5434 2736 c-3 -8 -4 -20 -3 -27 1 -8 -1 -22 -6 -32 -10 -23 11 -47
40 -47 13 0 26 7 29 17 6 15 8 15 19 -1 8 -11 23 -17 38 -14 22 3 24 7 24 58
0 54 0 55 -29 55 -24 0 -31 -6 -42 -35 -11 -29 -13 -31 -13 -10 1 14 1 31 0
38 -1 17 -50 15 -57 -2z m42 -7 c10 -17 -13 -36 -27 -22 -12 12 -4 33 11 33 5
0 12 -5 16 -11z m90 -14 c9 -38 -3 -77 -24 -73 -19 4 -27 37 -18 74 8 31 34
31 42 -1z m-87 -39 c9 -10 8 -16 -4 -26 -19 -16 -41 1 -32 24 8 20 21 20 36 2z"/>
<path d="M4746 858 c-29 -40 -14 -108 23 -108 49 0 56 73 8 78 -36 4 -29 28 7
25 23 -2 26 0 16 13 -18 20 -36 17 -54 -8z m48 -55 c7 -18 -20 -47 -35 -37
-11 6 -12 38 -2 47 12 13 31 7 37 -10z"/>
<path d="M4840 855 c-10 -12 -10 -15 3 -15 12 0 17 -13 20 -47 3 -43 4 -42 5
15 2 63 -5 75 -28 47z"/>
<path d="M4900 795 c0 -25 5 -45 10 -45 6 0 10 18 10 40 0 29 4 40 15 40 16 0
16 0 20 -45 4 -44 7 -44 14 0 4 26 11 40 21 40 10 0 17 -14 21 -40 l6 -40 2
48 1 47 -60 0 -60 0 0 -45z"/>
<path d="M3398 2739 c-21 -12 -25 -88 -6 -107 20 -20 48 -14 60 13 14 32 -5
59 -39 52 -18 -3 -23 0 -21 12 2 10 13 16 31 16 30 -1 36 9 11 19 -19 7 -15 8
-36 -5z m40 -73 c2 -10 -1 -23 -7 -29 -16 -16 -44 14 -35 37 8 22 38 17 42 -8z"/>
<path d="M3484 2725 c-17 -13 -17 -14 -1 -15 13 0 17 -9 17 -40 0 -22 5 -40
10 -40 6 0 10 25 10 55 0 58 -5 64 -36 40z"/>
<path d="M3551 2663 l2 -48 6 40 c4 27 12 41 24 43 14 3 17 -4 17 -38 0 -25 4
-39 10 -35 6 3 10 22 10 41 0 24 5 34 15 34 10 0 15 -11 15 -35 0 -19 5 -35
11 -35 6 0 9 16 7 38 l-3 37 -57 3 -58 2 1 -47z"/>
<path d="M3681 2663 c1 -27 3 -39 6 -28 2 11 6 30 9 43 8 37 34 27 34 -13 0
-19 5 -35 10 -35 6 0 10 16 10 36 0 28 3 35 18 32 11 -2 19 -16 23 -43 l7 -40
-2 45 -1 45 -57 3 -58 2 1 -47z"/>
<path d="M3637 1493 c-2 -4 -4 -30 -3 -58 1 -46 3 -50 28 -53 29 -4 55 29 41
51 -4 6 -8 23 -8 37 0 20 -6 26 -27 28 -14 2 -28 0 -31 -5z m46 -10 c9 -9 -13
-34 -24 -27 -14 8 -11 34 4 34 8 0 17 -3 20 -7z m5 -66 c4 -20 -25 -34 -40
-19 -15 15 -1 44 19 40 10 -2 19 -11 21 -21z"/>
<path d="M3717 1486 c-4 -9 -2 -16 3 -16 6 0 10 5 10 10 0 6 9 10 20 10 30 0
25 -32 -10 -65 -16 -16 -30 -32 -30 -37 0 -4 18 -8 41 -8 22 0 38 4 35 9 -3 5
-15 7 -26 4 -27 -7 -25 9 5 37 35 33 30 64 -11 68 -21 2 -33 -2 -37 -12z"/>
<path d="M3801 1423 l1 -48 8 38 c4 20 10 40 13 43 13 13 27 -9 27 -42 0 -19
4 -33 9 -30 4 3 8 22 7 43 -1 35 -3 38 -33 41 l-33 3 1 -48z"/>
<path d="M3888 1464 c6 -3 12 -21 12 -39 0 -19 5 -37 11 -40 7 -5 9 8 7 36 -2
35 -7 44 -23 46 -11 2 -14 0 -7 -3z"/>
<path d="M3931 1423 c1 -27 3 -39 6 -28 2 11 6 30 9 43 8 40 34 26 34 -19 0
-24 4 -38 10 -34 6 3 10 19 10 35 0 16 5 32 11 36 15 9 30 -16 26 -44 -3 -12
0 -25 5 -28 5 -4 8 13 6 38 l-3 43 -57 3 -58 2 1 -47z"/>
<path d="M2574 266 c-11 -8 -15 -18 -10 -23 5 -4 11 -2 13 5 3 6 13 12 24 12
29 0 23 -32 -11 -62 -47 -41 -39 -48 50 -48 47 0 80 4 80 10 0 6 -12 10 -27
10 l-27 0 27 28 c30 31 34 54 12 72 -18 15 -55 3 -54 -18 0 -11 3 -12 6 -4 6
15 39 16 49 1 11 -18 -56 -79 -88 -79 -34 0 -34 3 -3 34 30 30 32 52 6 66 -25
13 -23 13 -47 -4z"/>
<path d="M2763 272 c-13 -2 -23 -6 -23 -10 0 -4 -3 -17 -6 -29 -5 -19 -2 -22
22 -20 21 1 29 -3 32 -17 6 -27 -19 -38 -40 -19 -10 9 -18 11 -18 6 0 -31 69
-41 70 -10 0 7 7 3 15 -7 14 -18 15 -17 15 23 0 35 3 42 18 39 11 -2 19 -16
23 -43 l5 -40 5 40 c3 28 9 41 22 43 14 3 17 -4 17 -39 0 -25 4 -39 9 -33 4 5
6 26 4 47 l-5 37 -54 0 c-41 0 -54 -4 -54 -15 0 -8 -4 -15 -10 -15 -5 0 -10 5
-10 10 0 6 -11 10 -25 10 -35 0 -33 28 3 32 15 2 23 5 17 9 -5 3 -20 3 -32 1z"/>
<path d="M2951 193 l2 -48 6 40 c4 27 12 41 24 43 14 3 17 -4 18 -40 l2 -43 6
40 c4 27 12 41 24 43 14 3 17 -4 17 -32 0 -20 5 -36 11 -36 6 0 9 16 7 38 l-3
37 -57 3 -58 2 1 -47z"/>
<path d="M1944 8645 c-37 -56 16 -137 56 -87 16 19 17 19 28 1 15 -23 50 -25
58 -4 5 12 10 13 20 4 12 -9 14 -5 14 26 0 29 3 36 18 33 11 -2 19 -16 23 -43
l5 -40 5 40 c3 28 9 41 22 43 14 3 17 -4 17 -32 0 -20 3 -36 8 -36 4 0 6 18 4
40 l-4 40 -59 0 c-49 0 -59 -3 -59 -17 0 -13 -3 -14 -12 -5 -7 7 -22 12 -35
12 -16 0 -21 4 -16 16 4 10 14 14 29 11 27 -5 33 8 8 17 -17 7 -54 -10 -54
-24 0 -6 -9 -1 -20 10 -26 26 -36 25 -56 -5z m50 -11 c17 -45 -7 -97 -32 -72
-13 13 -16 70 -5 81 11 12 31 7 37 -9z m84 -50 c2 -12 -4 -24 -12 -27 -19 -7
-40 18 -32 39 8 22 40 13 44 -12z"/>
<path d="M3571 8656 c-21 -26 -10 -61 22 -64 30 -4 34 -14 13 -31 -10 -8 -16
-9 -21 -1 -3 5 -11 10 -18 10 -6 0 -4 -8 6 -17 22 -22 47 -9 62 31 17 50 -34
108 -64 72z m47 -29 c4 -20 -25 -34 -40 -19 -15 15 -1 44 19 40 10 -2 19 -11
21 -21z"/>
<path d="M3661 8662 c-6 -2 -11 -16 -11 -31 0 -22 4 -27 27 -26 32 0 38 -14
19 -40 -12 -16 -17 -18 -27 -7 -18 17 -34 15 -19 -3 27 -33 75 -7 68 37 -2 17
-11 24 -31 26 -32 4 -31 25 1 30 12 2 22 7 22 11 0 7 -30 9 -49 3z"/>
<path d="M1874 8645 c-17 -13 -17 -14 -1 -15 13 0 17 -9 17 -40 0 -22 5 -40
10 -40 6 0 10 23 9 55 -2 59 -5 63 -35 40z"/>
<path d="M2241 8583 l2 -48 6 40 c4 27 12 41 24 43 14 3 17 -4 18 -40 1 -24 3
-34 6 -23 2 11 6 30 9 43 8 37 34 27 34 -13 0 -19 5 -35 11 -35 6 0 9 16 7 38
l-3 37 -57 3 -58 2 1 -47z"/>
<path d="M3731 8583 l2 -48 6 40 c4 27 12 41 24 43 14 3 17 -4 17 -32 0 -20 5
-36 10 -36 6 0 10 16 10 36 0 28 3 35 18 32 12 -3 16 -12 14 -30 -1 -15 2 -30
8 -33 8 -5 10 6 8 31 l-3 39 -57 3 -58 2 1 -47z"/>
<path d="M3861 8588 c1 -44 3 -43 13 5 9 41 36 35 36 -8 0 -19 5 -35 10 -35 6
0 10 16 10 36 0 28 3 35 18 32 11 -2 19 -16 23 -43 l7 -40 -2 45 -1 45 -57 3
-58 2 1 -42z"/>
<path d="M265 7810 c-14 -15 -15 -20 -4 -20 10 0 14 -12 13 -40 -1 -22 2 -40
7 -40 5 0 9 27 9 60 0 33 -2 60 -3 60 -2 0 -12 -9 -22 -20z"/>
<path d="M338 7819 c-24 -13 -25 -91 -2 -110 36 -30 77 36 53 86 -16 33 -27
38 -51 24z m40 -53 c4 -42 -13 -63 -35 -44 -14 11 -18 70 -6 82 18 18 38 -1
41 -38z"/>
<path d="M409 7819 c-10 -6 -5 -9 17 -9 l32 0 -19 -37 c-10 -21 -19 -46 -18
-58 0 -17 2 -17 11 5 5 14 16 39 24 55 8 17 15 34 17 39 3 12 -46 16 -64 5z"/>
<path d="M491 7743 l2 -48 6 40 c4 27 12 41 24 43 14 3 17 -4 17 -32 0 -20 5
-36 10 -36 6 0 10 16 10 35 0 24 5 35 15 35 10 0 15 -11 15 -35 0 -19 5 -35
11 -35 6 0 9 16 7 38 l-3 37 -57 3 -58 2 1 -47z"/>
<path d="M621 7743 c1 -27 3 -39 6 -28 2 11 6 30 9 43 8 37 34 27 34 -13 0
-19 5 -35 10 -35 6 0 10 16 10 36 0 28 3 35 18 32 12 -2 17 -13 17 -36 0 -17
3 -32 8 -32 5 0 7 17 5 38 l-3 37 -57 3 -58 2 1 -47z"/>
<path d="M48 5336 c-21 -15 -23 -27 -6 -23 8 1 12 -13 12 -40 0 -24 4 -43 8
-43 5 0 8 27 8 60 0 33 -1 60 -2 60 -2 0 -11 -7 -20 -14z"/>
<path d="M111 5336 c-7 -8 -11 -34 -9 -58 3 -40 5 -43 33 -43 24 0 31 5 38 30
17 60 -28 112 -62 71z m47 -44 c2 -32 -1 -44 -13 -49 -31 -11 -49 59 -23 85
20 20 33 8 36 -36z"/>
<path d="M5900 4970 c-8 -5 -11 -12 -7 -16 3 -4 13 -1 22 6 12 10 16 9 21 -5
4 -9 1 -20 -5 -25 -10 -5 -9 -9 3 -13 20 -8 21 -36 1 -43 -8 -4 -22 -1 -30 6
-8 7 -15 8 -15 2 0 -17 29 -34 49 -27 24 7 34 31 22 53 -4 9 -6 23 -4 30 6 15
-14 42 -31 42 -6 0 -18 -4 -26 -10z"/>
<path d="M5970 4970 c0 -5 13 -10 29 -10 l28 0 -19 -40 c-11 -22 -18 -45 -15
-52 3 -8 7 -6 11 7 4 11 16 37 26 57 11 20 20 39 20 42 0 4 -18 6 -40 6 -22 0
-40 -4 -40 -10z"/>
<path d="M6064 4955 c-30 -47 6 -118 49 -94 12 7 17 23 17 52 0 66 -35 89 -66
42z m44 3 c14 -14 16 -57 3 -77 -15 -23 -41 -5 -41 28 0 54 14 73 38 49z"/>
<path d="M6158 4942 c-14 -3 -18 -13 -18 -43 0 -21 5 -39 10 -39 6 0 10 16 10
35 0 24 5 35 15 35 15 0 19 -16 16 -52 -1 -10 3 -18 8 -18 6 0 11 16 11 35 0
28 4 35 19 35 15 0 21 -9 24 -37 4 -33 4 -32 3 7 l-1 45 -40 0 c-22 1 -48 -1
-57 -3z"/>
<path d="M6288 4943 c-13 -3 -18 -15 -18 -44 0 -21 5 -39 10 -39 6 0 10 16 10
36 0 49 32 44 41 -6 l6 -35 4 35 c6 51 36 54 42 3 l4 -38 1 43 c1 23 -1 42 -5
43 -32 4 -81 5 -95 2z"/>
</g>
</svg>
