<?xml version="1.0" standalone="no"?>
<!DOCTYPE svg PUBLIC "-//W3C//DTD SVG 20010904//EN"
 "http://www.w3.org/TR/2001/REC-SVG-20010904/DTD/svg10.dtd">
<svg version="1.0" xmlns="http://www.w3.org/2000/svg"
 width="4657.000000pt" height="2794.000000pt" viewBox="0 0 4657.000000 2794.000000"
 preserveAspectRatio="xMidYMid meet">

<g transform="translate(0.000000,2794.000000) scale(0.100000,-0.100000)"
fill="#000000" stroke="none">
<path d="M25385 27270 c-478 -19 -1134 -96 -1625 -191 -786 -151 -1416 -325
-2345 -647 -299 -104 -723 -258 -900 -327 -352 -136 -773 -293 -1023 -381 -86
-30 -233 -82 -327 -115 -93 -34 -215 -75 -270 -93 -55 -18 -131 -44 -170 -58
-218 -82 -1087 -346 -1685 -513 -385 -108 -496 -136 -960 -249 -389 -94 -1019
-217 -1495 -291 -93 -14 -249 -40 -345 -56 -164 -27 -870 -130 -1025 -149 -38
-4 -176 -22 -305 -39 -534 -69 -1057 -125 -1480 -156 -509 -37 -831 -49 -1365
-49 -1014 -1 -1773 53 -2630 189 -233 37 -813 144 -895 165 -19 5 -80 19 -135
31 -251 53 -537 126 -1025 264 -452 127 -756 204 -870 220 -25 3 -79 14 -120
23 -58 13 -127 16 -300 16 -223 0 -226 0 -345 -33 -375 -102 -521 -178 -707
-369 -148 -152 -185 -211 -244 -384 -101 -297 -95 -585 20 -887 28 -72 137
-269 211 -381 200 -302 410 -617 485 -725 49 -71 89 -134 90 -138 0 -10 71
-106 138 -186 30 -36 59 -74 64 -86 5 -12 44 -53 85 -90 l74 -67 87 -10 c105
-12 1704 -4 2122 11 157 6 497 13 755 16 259 3 486 7 505 9 19 2 220 7 445 10
534 8 964 17 1045 21 36 2 277 7 537 11 521 7 506 9 728 -58 224 -67 360 -166
491 -358 81 -119 138 -263 194 -495 50 -207 58 -246 65 -307 3 -32 10 -60 14
-62 3 -3 8 -19 9 -38 1 -18 11 -91 22 -163 11 -71 25 -161 31 -200 5 -38 14
-90 19 -115 9 -46 15 -91 26 -195 3 -33 15 -118 25 -190 46 -305 86 -866 95
-1325 3 -173 9 -413 12 -532 3 -164 2 -221 -7 -232 -7 -9 -9 -21 -5 -28 20
-31 -15 -738 -50 -1008 -8 -63 -22 -182 -31 -265 -9 -82 -23 -197 -31 -255 -9
-58 -17 -134 -19 -170 -1 -36 -8 -96 -14 -135 -35 -196 -64 -334 -92 -437 -17
-62 -41 -151 -54 -198 -13 -47 -32 -109 -43 -137 -93 -245 -307 -442 -582
-535 -190 -64 -226 -68 -692 -71 -216 -1 -321 -6 -328 -13 -8 -8 6 -55 54
-175 158 -402 277 -858 316 -1214 55 -500 20 -1225 -86 -1810 -91 -496 -197
-888 -347 -1270 -181 -465 -481 -1032 -750 -1420 -236 -340 -484 -633 -776
-916 -544 -529 -1120 -924 -1836 -1261 -197 -92 -275 -124 -550 -225 -364
-134 -840 -277 -1173 -353 -48 -11 -128 -31 -179 -44 -100 -27 -345 -79 -743
-157 -484 -94 -689 -151 -854 -237 -77 -40 -132 -100 -175 -192 -23 -48 -26
-68 -25 -151 0 -93 2 -99 46 -190 89 -182 255 -403 386 -516 229 -197 549
-379 952 -540 529 -212 1184 -357 1975 -438 426 -43 1185 -45 1715 -5 269 21
766 81 950 115 41 8 87 14 102 13 15 0 78 11 140 25 62 15 214 47 338 73 224
46 656 148 865 205 1044 285 1872 576 2775 977 285 126 583 260 855 384 66 30
143 65 170 78 28 12 102 46 165 75 63 29 147 68 185 85 1252 575 1982 818
2835 945 604 90 1452 115 1980 60 1579 -167 2568 -459 4380 -1296 260 -120
1384 -680 1925 -959 680 -350 1415 -716 1835 -912 382 -180 400 -188 780 -358
177 -79 249 -110 395 -170 83 -34 213 -89 290 -122 156 -67 523 -215 709 -285
386 -146 473 -178 586 -218 69 -24 184 -64 255 -90 209 -75 667 -229 840 -284
369 -116 636 -193 643 -187 3 3 10 2 16 -3 14 -11 238 -77 579 -171 1674 -458
3313 -689 4552 -641 499 20 787 41 1435 107 893 91 1632 245 2440 509 381 125
581 204 901 354 923 435 1826 1091 2634 1912 379 386 645 707 930 1119 32 47
104 148 160 225 306 422 768 1246 1025 1830 179 406 241 573 311 825 144 520
182 913 113 1170 -32 120 -110 280 -179 370 -88 114 -233 222 -380 283 -205
85 -491 96 -697 27 -185 -62 -330 -153 -808 -505 -237 -175 -459 -329 -790
-547 -558 -368 -969 -587 -1585 -844 -33 -14 -80 -34 -105 -44 -160 -68 -779
-282 -1025 -354 -887 -258 -1468 -390 -2110 -480 -328 -46 -510 -65 -1035
-106 -228 -18 -755 -24 -1005 -11 -1236 65 -2171 311 -3022 797 -140 80 -377
230 -448 283 -27 21 -111 83 -185 138 -146 108 -275 219 -440 377 -217 208
-339 347 -479 548 -25 35 -61 86 -82 113 -39 52 -60 87 -190 321 -215 387
-370 854 -433 1299 -44 319 -55 539 -61 1250 -3 330 -8 706 -12 835 -4 129 -8
2544 -8 5365 -2 3596 -5 5202 -13 5370 -6 132 -14 348 -17 480 -15 695 -47
890 -210 1284 -60 147 -232 468 -318 596 -485 721 -1178 1263 -2022 1582 -232
87 -272 101 -455 161 -380 123 -878 227 -1355 282 -543 63 -948 80 -1430 60z
m2871 -1333 c88 -46 139 -190 96 -273 -60 -117 -189 -158 -311 -97 -45 22 -62
38 -84 78 -24 44 -27 58 -24 113 3 39 11 70 21 81 9 10 16 22 16 27 0 15 70
74 91 77 10 2 21 6 25 10 12 11 141 -1 170 -16z m-4326 -1861 c174 -21 335
-106 457 -241 57 -63 143 -206 143 -237 0 -18 58 -74 90 -86 14 -5 148 -10
298 -10 298 -1 343 -7 427 -60 52 -33 127 -119 158 -181 22 -45 22 -52 25
-521 1 -261 6 -590 10 -730 4 -140 3 -313 -1 -385 -4 -71 -5 -202 -1 -290 3
-88 8 -549 10 -1025 4 -1068 1 -995 39 -1027 l30 -25 375 5 c278 3 382 8 403
18 27 12 55 62 70 120 7 28 79 140 132 205 37 45 151 140 205 170 198 112 470
125 673 31 103 -48 185 -106 246 -174 59 -65 142 -198 160 -255 7 -22 26 -47
44 -60 31 -23 37 -23 327 -24 319 -1 342 -4 435 -58 49 -29 140 -132 160 -181
7 -16 16 -88 20 -160 6 -121 18 -653 16 -720 -2 -48 -3 -837 -1 -1105 1 -135
2 -351 2 -480 0 -129 1 -282 3 -340 9 -236 23 -1766 28 -2900 l2 -575 -35 -60
c-78 -134 -124 -176 -232 -211 -29 -9 -62 -22 -73 -27 -13 -7 -127 -12 -305
-13 -157 -1 -291 -3 -298 -3 -13 -1 -24 -24 -63 -125 -62 -163 -196 -301 -377
-390 -120 -59 -172 -71 -327 -71 -127 0 -147 3 -221 28 -173 59 -343 192 -417
325 -23 42 -51 97 -62 123 -11 25 -27 56 -36 70 l-16 24 -329 6 c-357 6 -364
7 -445 65 -74 54 -114 105 -138 175 -19 60 -21 92 -26 469 -2 223 -5 414 -5
425 -1 11 -1 189 -2 395 -2 1061 -5 1317 -12 1333 -5 9 -5 30 -1 45 8 34 8 98
0 139 -4 18 -4 41 0 50 6 18 8 168 5 749 l-2 332 -29 28 c-26 25 -39 28 -117
34 -48 3 -112 5 -142 4 -30 -1 -157 -5 -282 -8 -125 -3 -239 -8 -255 -12 -39
-9 -71 -40 -100 -99 -85 -166 -147 -247 -246 -321 -179 -134 -420 -186 -624
-135 -119 29 -204 77 -318 176 -108 94 -150 150 -197 254 -16 36 -35 77 -41
91 l-13 25 -322 1 -323 1 -67 29 c-113 47 -202 139 -223 232 -4 20 -9 180 -9
354 -1 201 -5 320 -12 324 -5 3 -7 18 -3 33 12 47 6 1222 -6 1237 -9 11 -8 18
0 28 9 11 11 102 7 353 -2 186 -5 347 -6 358 0 11 0 58 1 105 0 47 1 101 0
120 0 19 0 139 0 265 2 959 0 1155 -13 1179 -7 12 -8 53 -3 115 9 119 11 317
7 1158 -3 561 -1 666 11 695 23 51 98 129 162 167 81 49 150 60 365 62 351 1
384 10 421 104 58 146 139 256 249 338 174 131 347 178 560 153z m-7479 -147
c30 -9 38 -17 36 -33 -2 -16 3 -20 19 -18 26 3 71 -52 86 -105 18 -65 2 -118
-49 -166 -25 -23 -55 -42 -67 -42 -14 0 -22 -8 -24 -22 -3 -17 -12 -23 -47
-28 -58 -9 -94 0 -151 37 -33 23 -53 46 -70 82 -25 53 -32 120 -14 131 6 4 8
10 5 15 -8 13 58 100 72 95 15 -5 35 19 25 30 -4 5 -1 5 6 1 8 -5 21 -2 30 7
34 29 81 34 143 16z m-12870 -86 c62 -32 99 -80 99 -129 0 -18 5 -36 10 -39
13 -8 13 -50 -1 -100 -24 -85 -140 -154 -240 -142 -127 15 -193 93 -191 224 2
97 24 136 103 185 58 36 149 36 220 1z m26644 -5552 c73 -42 108 -96 109 -169
1 -78 -18 -136 -58 -175 -50 -50 -101 -71 -170 -69 -120 3 -207 78 -220 190
-7 58 -5 67 30 147 28 66 99 102 204 104 43 1 66 -5 105 -28z m-19574 -4807
c172 -108 109 -370 -95 -397 -46 -6 -123 15 -160 44 -30 24 -76 107 -69 127 3
7 0 19 -7 27 -16 20 -4 70 32 130 33 56 80 85 157 96 60 9 97 2 142 -27z
m19704 -3420 c43 -20 66 -52 88 -120 31 -96 31 -126 4 -181 -21 -41 -63 -84
-87 -88 -3 -1 -23 -6 -45 -12 -111 -31 -179 -18 -237 43 -52 55 -72 160 -46
235 29 84 70 120 163 142 35 9 124 -1 160 -19z m14946 -1586 c152 -52 194
-264 72 -371 -18 -16 -31 -33 -30 -39 1 -5 -23 -12 -53 -15 -30 -2 -59 -8 -65
-14 -5 -5 -18 -9 -30 -9 -15 0 -16 3 -7 9 11 7 10 10 -3 15 -24 9 -37 7 -30
-4 3 -6 -1 -7 -9 -4 -9 3 -13 10 -10 15 5 8 -19 13 -30 7 -9 -6 -49 40 -68 76
-27 52 -28 156 -3 211 47 103 165 158 266 123z m-24 -444 c-3 -3 -12 -4 -19
-1 -8 3 -5 6 6 6 11 1 17 -2 13 -5z m-1086 -818 c70 -22 168 -73 218 -113 55
-46 132 -163 161 -245 15 -43 24 -96 27 -168 6 -127 -10 -203 -65 -301 -75
-135 -262 -266 -413 -290 -265 -41 -498 71 -606 292 -52 105 -67 181 -61 307
8 139 54 254 145 362 57 66 216 150 323 171 60 11 214 3 271 -15z m-21746
-846 c25 -12 59 -40 77 -63 30 -38 33 -48 37 -126 3 -68 0 -86 -12 -93 -9 -5
-14 -15 -10 -23 14 -38 -69 -107 -151 -125 -99 -22 -216 41 -252 136 -30 78
-4 206 52 255 67 60 182 77 259 39z m13479 -691 c62 -15 125 -82 139 -146 21
-99 2 -172 -60 -226 -18 -16 -31 -33 -30 -38 1 -6 -25 -13 -58 -15 -33 -3 -61
-9 -63 -14 -5 -14 -22 -12 -19 2 2 10 -86 50 -102 45 -18 -4 -51 28 -66 65
-53 132 8 279 134 324 45 16 71 17 125 3z m-3361 -814 c86 -26 170 -78 237
-145 106 -107 160 -239 160 -395 0 -160 -49 -275 -164 -382 -196 -183 -434
-223 -666 -111 -128 62 -249 220 -279 366 -15 74 -13 207 4 272 55 209 230
370 445 410 60 12 204 4 263 -15z m-22523 -230 c177 -123 98 -396 -121 -422
-41 -5 -49 -3 -49 11 0 10 -8 16 -22 15 -22 0 -22 -1 -3 -9 11 -5 14 -9 7 -9
-24 -2 -90 39 -110 66 -33 48 -51 108 -47 156 4 58 37 132 64 146 12 7 21 18
21 25 0 8 8 16 18 19 9 3 35 13 57 21 59 24 135 16 185 -19z m-6447 -169 c97
-29 144 -89 153 -199 5 -49 2 -72 -14 -107 -40 -93 -99 -130 -208 -130 -177 0
-282 176 -198 331 53 97 157 138 267 105z m35148 -370 c99 -34 173 -81 234
-149 104 -115 157 -256 154 -410 -4 -183 -72 -314 -229 -439 -218 -173 -548
-168 -752 11 -59 52 -132 162 -159 238 -30 83 -37 256 -14 342 61 233 235 390
485 435 61 11 212 -4 281 -28z m2310 -1469 c90 -48 137 -169 104 -268 -9 -28
-26 -59 -37 -69 -12 -11 -18 -25 -14 -35 4 -10 1 -15 -9 -13 -7 2 -13 -1 -12
-5 1 -5 -9 -15 -23 -22 -30 -17 -51 -19 -30 -4 12 9 12 10 -3 5 -10 -3 -23 -6
-28 -6 -6 0 -8 -4 -5 -8 3 -5 -17 -9 -44 -9 -28 0 -47 3 -44 8 3 5 3 9 0 9 -2
0 -13 3 -23 6 -15 5 -16 4 -3 -6 13 -10 12 -11 -3 -6 -10 3 -23 6 -28 6 -6 0
-7 5 -4 10 3 6 -2 10 -13 10 -22 0 -53 32 -77 80 -25 48 -25 152 0 205 53 115
191 167 296 112z m-9506 -238 c26 -7 56 -28 85 -57 38 -39 47 -57 56 -107 15
-85 2 -134 -51 -193 -25 -27 -42 -52 -39 -55 3 -3 0 -8 -7 -13 -8 -5 -10 -3
-4 6 6 10 4 12 -11 6 -10 -5 -38 -11 -61 -13 -24 -3 -43 -10 -43 -14 0 -5 -4
-9 -10 -9 -5 0 -9 5 -7 12 2 10 -85 49 -102 46 -53 -10 -101 124 -80 223 19
89 123 177 209 179 14 0 43 -5 65 -11z"/>
<path d="M34005 130 c3 -5 8 -10 11 -10 2 0 4 5 4 10 0 6 -5 10 -11 10 -5 0
-7 -4 -4 -10z"/>
</g>
</svg>
