<?xml version="1.0" standalone="no"?>
<!DOCTYPE svg PUBLIC "-//W3C//DTD SVG 20010904//EN"
 "http://www.w3.org/TR/2001/REC-SVG-20010904/DTD/svg10.dtd">
<svg version="1.0" xmlns="http://www.w3.org/2000/svg"
 width="4595.000000pt" height="2899.000000pt" viewBox="0 0 4595.000000 2899.000000"
 preserveAspectRatio="xMidYMid meet">

<g transform="translate(0.000000,2899.000000) scale(0.100000,-0.100000)"
fill="#000000" stroke="none">
<path d="M11575 27260 c-307 -11 -423 -21 -930 -76 -293 -32 -979 -128 -1243
-174 -431 -76 -1055 -220 -1317 -303 -60 -20 -155 -49 -210 -66 -399 -120
-1070 -385 -1325 -523 -36 -19 -105 -57 -155 -83 -194 -104 -656 -376 -695
-410 -8 -7 -58 -41 -110 -76 -417 -276 -875 -658 -1321 -1100 -537 -533 -828
-885 -1214 -1469 -242 -366 -376 -583 -372 -600 3 -8 8 -23 12 -32 4 -11 3
-18 -4 -18 -6 0 -11 6 -11 14 0 23 -19 29 -27 9 -4 -10 -17 -35 -30 -56 -113
-181 -476 -916 -607 -1227 -246 -585 -359 -944 -450 -1425 -68 -356 -64 -677
10 -889 56 -160 191 -356 315 -455 64 -52 231 -134 325 -161 37 -11 114 -25
171 -31 89 -10 123 -9 231 6 145 20 211 39 326 97 131 66 333 210 646 462 250
201 490 386 510 394 8 3 20 11 25 18 6 6 80 62 165 124 85 62 180 132 210 155
142 109 587 388 850 533 165 91 448 234 518 261 28 11 83 36 122 56 38 19 114
53 168 74 53 21 151 62 217 91 287 124 974 367 1355 479 74 22 212 62 305 90
676 199 1550 361 2360 436 1033 95 2192 -6 2988 -261 711 -228 1376 -593 1916
-1053 195 -166 404 -373 462 -459 90 -133 168 -230 189 -237 20 -6 75 -75 117
-145 63 -106 153 -253 161 -263 20 -24 161 -315 213 -437 210 -500 294 -959
339 -1845 6 -115 13 -239 15 -275 3 -36 12 -198 20 -360 8 -162 20 -376 25
-475 22 -382 60 -1100 70 -1305 6 -118 15 -307 20 -420 18 -365 59 -1285 75
-1645 8 -192 17 -395 20 -450 2 -55 7 -152 10 -215 3 -63 9 -212 15 -330 29
-614 125 -2821 140 -3200 5 -146 12 -308 15 -360 2 -52 7 -160 10 -240 4 -80
13 -271 20 -425 8 -154 18 -342 21 -417 6 -125 9 -138 26 -138 10 0 18 -5 18
-11 0 -6 -9 -8 -20 -4 -17 5 -19 3 -15 -22 2 -15 9 -120 15 -233 6 -113 15
-290 20 -395 5 -104 15 -282 20 -395 6 -113 13 -216 15 -230 3 -14 14 -151 25
-305 67 -933 82 -1026 211 -1355 177 -454 543 -974 919 -1309 234 -208 303
-262 515 -404 351 -235 650 -377 1140 -539 212 -70 698 -201 790 -213 28 -3
133 -21 235 -40 318 -58 855 -108 1295 -120 214 -6 591 6 835 25 368 30 899
106 1265 181 110 22 243 49 295 59 146 29 589 142 855 218 571 165 1187 386
1950 702 286 117 440 183 505 212 36 17 155 67 265 113 110 46 263 110 340
143 77 33 203 85 280 117 77 32 203 84 280 116 743 308 1701 656 2635 955 766
246 1725 477 2820 678 358 66 1160 202 1420 241 284 42 810 115 935 130 77 8
174 20 215 25 41 5 127 14 190 20 63 6 156 15 205 21 132 14 584 46 860 61
304 16 1280 16 1595 0 546 -28 958 -70 1550 -157 522 -77 760 -124 1650 -330
514 -119 761 -162 985 -172 246 -10 399 13 655 102 215 75 333 144 472 274
172 162 251 304 309 557 31 139 32 365 1 511 -39 180 -103 333 -205 483 -124
183 -300 432 -411 580 -39 52 -121 162 -183 245 -204 273 -258 340 -385 476
-29 31 -53 62 -53 70 0 7 -12 20 -27 29 -25 14 -30 13 -62 -4 -29 -15 -47 -17
-113 -12 -43 4 -177 2 -298 -3 -449 -21 -834 -41 -965 -52 -74 -5 -176 -12
-226 -14 -49 -2 -103 -9 -118 -15 -33 -12 -57 -14 -39 -2 6 4 -10 7 -35 8 -26
1 -39 -1 -29 -3 34 -9 16 -19 -32 -19 -28 0 -48 3 -45 8 3 4 -5 8 -18 8 -31 0
-478 -28 -553 -35 -33 -3 -190 -12 -350 -20 -159 -9 -387 -22 -505 -30 -464
-32 -813 -55 -990 -65 -102 -6 -336 -22 -520 -35 -953 -69 -1037 -72 -1245
-44 -168 23 -358 103 -472 199 -38 32 -104 104 -147 161 -69 91 -93 133 -151
264 -22 50 -94 277 -110 345 -8 36 -31 133 -50 215 -54 231 -90 411 -101 508
-2 21 -8 46 -13 55 -5 9 -16 62 -26 117 -9 55 -32 181 -50 280 -75 400 -133
942 -165 1525 -6 96 -15 231 -20 300 -13 153 -19 900 -9 1065 4 66 14 237 23
380 8 143 20 303 27 355 6 52 13 120 14 150 8 189 46 439 100 675 61 262 82
317 162 437 144 215 347 351 633 423 87 22 142 27 400 40 41 2 127 7 190 10
150 7 243 15 249 21 2 2 -21 59 -52 126 -98 214 -127 288 -202 513 -85 251
-145 476 -174 650 -157 934 -39 2249 284 3175 123 352 355 875 506 1140 241
422 488 776 763 1090 104 118 358 385 411 430 16 14 98 87 183 162 498 443
1119 834 1747 1100 694 294 1233 464 2261 713 474 115 590 151 739 228 94 48
180 129 216 202 21 44 24 64 24 160 0 107 -1 112 -37 180 -99 190 -285 414
-439 531 -386 292 -1014 542 -1702 679 -1144 226 -2443 216 -3717 -30 -69 -13
-177 -33 -240 -45 -63 -11 -135 -27 -160 -35 -25 -8 -171 -46 -325 -85 -263
-67 -383 -100 -785 -222 -527 -159 -1067 -353 -1614 -580 -681 -282 -1046
-455 -2246 -1062 -1217 -616 -1608 -794 -2150 -977 -634 -215 -1307 -353
-1925 -394 -49 -3 -127 -10 -172 -16 -59 -7 -89 -7 -104 1 -16 9 -24 8 -37 -3
-13 -10 -60 -15 -197 -17 -218 -4 -362 -3 -475 4 -47 3 -137 8 -200 11 -254
12 -856 74 -1075 110 -197 33 -389 69 -570 107 -223 46 -626 146 -640 159 -5
5 -18 9 -29 9 -33 0 -505 147 -796 249 -294 102 -886 328 -1155 441 -267 112
-356 150 -560 238 -121 52 -270 117 -331 143 -137 58 -421 184 -529 235 -44
20 -177 80 -295 134 -118 53 -339 154 -490 223 -555 253 -929 421 -1090 489
-91 39 -203 87 -250 108 -124 55 -642 269 -805 333 -503 197 -618 241 -790
302 -71 26 -177 64 -235 85 -350 127 -905 313 -1290 433 -256 80 -849 251
-1025 297 -44 11 -177 46 -295 77 -205 53 -334 85 -570 139 -58 13 -170 40
-250 59 -80 19 -188 44 -240 54 -52 11 -156 34 -230 51 -387 89 -1081 215
-1540 280 -824 115 -1710 166 -2435 140z m-6415 -2080 c0 -5 -5 -10 -11 -10
-5 0 -7 5 -4 10 3 6 8 10 11 10 2 0 4 -4 4 -10z m36010 -2680 c0 -5 -4 -10
-10 -10 -5 0 -10 5 -10 10 0 6 5 10 10 10 6 0 10 -4 10 -10z m-1030 -900 c0
-5 -4 -10 -10 -10 -5 0 -10 5 -10 10 0 6 5 10 10 10 6 0 10 -4 10 -10z
m-19043 -5511 c61 -20 119 -47 170 -81 89 -60 212 -177 238 -228 9 -19 23 -42
30 -50 7 -8 20 -36 30 -62 10 -26 29 -55 42 -64 28 -18 70 -18 393 -6 277 11
361 -7 456 -97 51 -48 79 -95 105 -176 21 -67 41 -253 29 -270 -4 -5 -6 -23
-4 -40 3 -27 16 -293 30 -610 2 -60 10 -213 18 -340 7 -126 12 -246 11 -265
-1 -19 4 -57 12 -85 8 -30 13 -102 13 -180 0 -154 -1 -131 17 -420 7 -126 14
-254 14 -284 1 -30 6 -62 12 -71 6 -10 7 -28 2 -46 -11 -36 -12 -74 -4 -94 4
-8 10 -132 14 -275 4 -143 10 -271 12 -285 3 -14 5 -58 4 -98 -1 -39 1 -78 6
-85 4 -6 8 -37 8 -67 0 -30 4 -123 9 -207 9 -165 12 -173 71 -188 40 -10 189
-7 350 8 72 6 157 12 190 12 55 0 127 8 213 21 29 4 82 47 82 66 0 4 18 44 40
89 22 45 40 88 40 96 0 7 4 13 8 13 4 0 33 31 64 69 117 143 301 243 501 271
128 19 321 -19 432 -84 62 -37 176 -136 170 -147 -4 -5 2 -9 13 -9 25 0 62
-36 62 -60 0 -13 7 -20 19 -20 14 0 33 -28 72 -106 l54 -105 100 5 c55 3 199
11 320 17 l220 11 66 -25 c37 -14 86 -39 110 -57 90 -64 159 -188 157 -280 -1
-42 9 -305 18 -449 3 -57 10 -115 15 -129 5 -13 6 -30 1 -36 -8 -12 -7 -39 27
-736 13 -250 25 -462 28 -470 2 -8 6 -76 8 -150 5 -215 24 -511 36 -556 7 -25
7 -54 2 -75 -5 -19 -5 -65 0 -104 4 -38 8 -81 9 -95 4 -155 30 -711 34 -730 3
-14 7 -108 9 -210 2 -102 6 -212 9 -245 3 -33 8 -98 11 -144 3 -46 8 -88 12
-94 4 -6 8 -90 9 -187 2 -153 14 -417 30 -635 3 -38 7 -131 9 -205 14 -436 35
-801 48 -828 16 -33 -7 -116 -48 -172 -93 -127 -195 -185 -340 -194 -491 -30
-495 -31 -529 -57 -13 -11 -28 -34 -31 -52 -4 -17 -10 -36 -14 -42 -3 -5 -6
-12 -6 -15 -1 -14 -59 -116 -93 -167 -96 -141 -293 -276 -454 -309 -141 -30
-339 -13 -463 39 -67 28 -173 98 -240 159 -55 50 -130 159 -161 233 -30 74
-73 98 -166 91 -34 -3 -109 -6 -168 -7 -59 -1 -150 -6 -201 -11 -109 -11 -185
-1 -264 36 -96 44 -207 173 -229 266 -6 25 -29 488 -41 815 -3 99 -10 205 -15
235 -9 52 -11 87 -25 310 -3 52 -8 190 -10 305 -2 116 -9 235 -15 265 -6 30
-13 158 -16 284 -2 125 -6 232 -9 236 -4 7 -11 137 -20 420 -2 80 -7 181 -10
225 -11 162 -15 234 -25 400 -5 94 -13 190 -16 215 -7 47 -10 73 -12 126 -3
49 -34 57 -209 51 -289 -10 -584 -35 -609 -52 -23 -14 -24 -14 -24 5 0 11 -6
20 -14 20 -14 0 -26 -49 -26 -108 0 -80 -115 -253 -234 -353 -82 -70 -224
-142 -320 -164 -39 -9 -113 -16 -172 -16 -189 1 -353 59 -486 173 -77 67 -184
203 -223 285 -14 29 -34 57 -45 63 -24 13 -144 13 -383 0 -290 -16 -366 4
-490 132 -32 34 -63 72 -69 87 -14 33 -40 303 -44 441 -1 58 -3 110 -5 115 -1
6 -4 35 -6 65 -1 30 -5 78 -7 105 -3 28 -8 154 -11 280 -2 127 -8 259 -12 295
-4 36 -8 85 -10 110 -4 85 -6 106 -14 260 -16 281 -19 343 -24 535 -3 105 -10
233 -15 285 -5 52 -12 163 -15 245 -3 83 -10 218 -15 300 -5 83 -15 254 -21
380 -6 127 -15 271 -20 320 -4 50 -13 191 -19 315 -9 216 -25 482 -40 715 -5
61 -13 229 -19 375 -6 146 -13 290 -16 320 -11 126 -26 408 -31 591 -5 177 -3
201 14 247 45 116 156 223 274 260 97 31 166 39 456 48 183 6 193 7 204 28 6
11 13 34 15 50 3 25 67 166 107 235 22 37 106 118 176 170 209 155 447 197
687 120z m573 -479 c0 -5 -4 -10 -10 -10 -5 0 -10 5 -10 10 0 6 5 10 10 10 6
0 10 -4 10 -10z m-1572 -85 c-11 -9 -58 -14 -58 -6 0 11 30 19 48 13 7 -2 12
-6 10 -7z m2672 -6740 c17 -9 30 -20 30 -25 0 -14 -7 -13 -35 6 -18 12 -46 15
-129 12 -118 -3 -147 9 -33 15 39 1 87 4 105 5 18 1 46 -5 62 -13z m-262 -10
c-3 -3 -72 -7 -154 -9 -84 -2 -127 0 -99 4 60 8 261 12 253 5z m-359 -19 c-2
-2 -35 -6 -74 -9 -44 -4 -61 -3 -45 2 24 9 127 15 119 7z m-2391 -103 c45 -14
89 -18 202 -17 100 1 129 -2 95 -7 -152 -23 -325 3 -408 60 -70 48 -77 67 -8
23 34 -23 88 -49 119 -59z m3052 57 c0 -5 -7 -10 -16 -10 -8 0 -12 5 -9 10 3
6 10 10 16 10 5 0 9 -4 9 -10z m-2367 -62 c14 -11 -13 -13 -147 -13 -174 0
-214 12 -61 18 50 1 113 4 141 5 28 1 58 -4 67 -10z m221 -315 c8 -19 2 -16
-25 13 -23 25 -23 26 -2 13 13 -7 25 -19 27 -26z m61 -53 c3 -5 2 -10 -4 -10
-5 0 -13 5 -16 10 -3 6 -2 10 4 10 5 0 13 -4 16 -10z m925 -31 c-26 -22 -114
-69 -127 -69 -4 0 15 13 43 28 27 16 61 36 74 45 34 24 40 21 10 -4z m-818
-38 c117 -63 194 -83 343 -88 101 -4 144 -2 194 11 69 18 98 15 34 -3 -72 -21
-188 -33 -253 -26 -138 14 -307 70 -377 125 -38 29 -24 25 59 -19z m673 -40
c-6 -5 -21 -11 -35 -15 -21 -5 -20 -3 5 9 35 17 42 18 30 6z m22775 -661 c-8
-5 -41 -10 -72 -10 -32 0 -261 -11 -509 -25 -248 -14 -453 -24 -456 -22 -6 7
276 24 962 60 33 2 67 4 75 5 13 2 13 1 0 -8z m63 3 c-7 -2 -19 -2 -25 0 -7 3
-2 5 12 5 14 0 19 -2 13 -5z m-1295 -70 c-10 -2 -26 -2 -35 0 -10 3 -2 5 17 5
19 0 27 -2 18 -5z m-4969 -147 c69 -35 186 -75 281 -97 135 -31 308 -34 635
-10 160 11 360 26 445 31 298 20 445 31 490 37 30 3 42 2 35 -5 -5 -5 -86 -15
-180 -21 -93 -7 -224 -16 -290 -21 -66 -5 -205 -14 -310 -20 -104 -6 -234 -15
-288 -20 -54 -6 -169 -10 -255 -10 -198 0 -370 32 -512 96 -109 49 -180 96
-215 142 -11 15 8 5 50 -27 37 -28 88 -62 114 -75z m4466 114 c-27 -5 -95 -8
-150 -7 l-100 1 80 6 c44 3 112 7 150 7 69 0 69 0 20 -7z m-290 -20 c-16 -4
-67 -8 -113 -9 -46 0 -188 -8 -317 -17 -128 -8 -246 -14 -262 -12 -15 2 31 8
102 12 72 4 202 14 290 20 189 15 345 18 300 6z m-830 -51 c-44 -4 -154 -9
-245 -12 l-165 -5 160 12 c88 7 198 13 245 13 l85 0 -80 -8z m-445 -24 c-30
-8 -816 -57 -843 -53 -12 2 64 9 168 16 366 25 490 33 498 35 16 4 191 5 177
2z m-907 -62 c-18 -2 -48 -2 -65 0 -18 2 -4 4 32 4 36 0 50 -2 33 -4z m-13743
-2413 c0 -15 -86 -70 -150 -96 -64 -26 -162 -37 -455 -53 -94 -6 -179 -13
-190 -16 -19 -6 -19 -6 -2 8 20 16 38 18 377 41 238 16 295 29 373 91 49 39
47 38 47 25z m-3184 -136 c23 -23 66 -53 96 -68 89 -43 155 -50 377 -37 277
16 351 15 377 -7 12 -9 36 -47 54 -84 49 -98 124 -193 206 -258 99 -79 164
-114 269 -146 152 -46 368 -36 508 24 103 44 195 103 258 164 67 67 76 67 22
2 -44 -52 -121 -107 -218 -157 -104 -52 -154 -66 -288 -79 -112 -10 -130 -9
-221 10 -228 50 -398 173 -516 377 -93 160 -80 150 -202 147 -56 -1 -182 -7
-278 -12 -195 -11 -260 -5 -344 33 -60 28 -125 83 -168 141 -36 49 -36 73 0
26 14 -19 45 -54 68 -76z m18534 51 c0 -8 -4 -15 -10 -15 -5 0 -10 7 -10 15 0
8 5 15 10 15 6 0 10 -7 10 -15z"/>
<path d="M45570 6320 c0 -5 5 -10 10 -10 6 0 10 5 10 10 0 6 -4 10 -10 10 -5
0 -10 -4 -10 -10z"/>
</g>
</svg>
